<?xml version="1.0" standalone="no"?><!DOCTYPE svg PUBLIC "-//W3C//DTD SVG 1.1//EN" "http://www.w3.org/Graphics/SVG/1.1/DTD/svg11.dtd"><svg t="1631257729164" class="icon" viewBox="0 0 1024 1024" version="1.1" xmlns="http://www.w3.org/2000/svg" p-id="3229" xmlns:xlink="http://www.w3.org/1999/xlink" width="32" height="32"><defs><style type="text/css"></style></defs><path d="M512 1024a512 512 0 1 1 512-512 512 512 0 0 1-512 512z m0-953.37931a441.37931 441.37931 0 1 0 441.37931 441.37931A441.37931 441.37931 0 0 0 512 70.62069z" fill="#EE7BA2" p-id="3230"></path><path d="M225.658874 534.972248m22.471366-22.471365l0 0q22.471366-22.471366 44.942732 0l159.671538 159.671538q22.471366 22.471366 0 44.942732l0 0q-22.471366 22.471366-44.942732 0l-159.671538-159.671539q-22.471366-22.471366 0-44.942731Z" fill="#EE7BA2" p-id="3231"></path><path d="M794.813146 285.390924m22.471365 22.471366l0 0q22.471366 22.471366 0 44.942732l-363.287081 363.287081q-22.471366 22.471366-44.942731 0l0 0q-22.471366-22.471366 0-44.942732l363.287081-363.287081q22.471366-22.471366 44.942731 0Z" fill="#EE7BA2" p-id="3232"></path></svg>