<?xml version="1.0" standalone="no"?><!DOCTYPE svg PUBLIC "-//W3C//DTD SVG 1.1//EN" "http://www.w3.org/Graphics/SVG/1.1/DTD/svg11.dtd"><svg t="1630809583322" class="icon" viewBox="0 0 1024 1024" version="1.1" xmlns="http://www.w3.org/2000/svg" p-id="6606" xmlns:xlink="http://www.w3.org/1999/xlink" width="32" height="32"><defs><style type="text/css"></style></defs><path d="M808.539701 50.945274v927.20398c-7.641791-9.679602-14.264677-20.887562-23.434825-29.038806C665.892935 838.049751 546.171542 727.498507 426.450149 616.947264c-36.680597-33.623881-72.851741-67.757214-110.551244-103.418906 7.641791-6.622886 12.736318-11.20796 17.321394-15.283582 147.741294-136.533333 294.973134-273.066667 442.204975-409.6 12.226866-11.20796 22.41592-24.963184 33.114427-37.699502zM217.574527 504.358209V5.60398h590.965174V40.756219c-20.887562-38.718408-48.39801-43.303483-81.002985-13.245771C635.835224 113.098507 543.624279 198.177114 451.922786 283.765174 373.467065 357.126368 295.520796 430.997015 217.574527 504.358209zM808.539701 988.338308v35.661692H217.574527v-499.263682c12.226866 12.736318 23.434826 25.98209 36.680597 38.208956 157.930348 146.722388 315.860697 292.935323 474.300498 439.148258 32.604975 30.567164 58.587065 25.98209 79.984079-13.755224z" fill="#FFFFFF" p-id="6607"></path><path d="M808.539701 988.338308c-21.397015 39.737313-47.379104 44.322388-80.493532 13.755224-157.930348-146.212935-316.370149-292.935323-474.300497-439.148258-12.736318-11.717413-24.453731-25.472637-36.680597-38.208956v-20.378109c77.946269-73.361194 155.892537-147.231841 234.348258-220.593035C543.114826 198.177114 635.325771 113.098507 727.027264 27.510448c32.604975-30.567164 60.115423-25.98209 81.002985 13.245771v10.189055c-10.698507 12.736318-20.887562 26.491542-33.114428 37.699502C628.193433 225.687562 480.961592 361.711443 333.220299 498.244776c-5.094527 4.585075-10.189055 9.170149-17.321394 15.283582 38.208955 35.661692 74.3801 69.285572 110.551244 103.418906 119.721393 110.551244 239.442786 221.102488 358.654727 331.653731 9.170149 8.660697 15.793035 19.359204 23.434825 29.038806v10.698507z" p-id="6608"></path></svg>