<?xml version="1.0" standalone="no"?><!DOCTYPE svg PUBLIC "-//W3C//DTD SVG 1.1//EN" "http://www.w3.org/Graphics/SVG/1.1/DTD/svg11.dtd"><svg t="1631347227768" class="icon" viewBox="0 0 1024 1024" version="1.1" xmlns="http://www.w3.org/2000/svg" p-id="1963" xmlns:xlink="http://www.w3.org/1999/xlink" width="32" height="32"><defs><style type="text/css"></style></defs><path d="M489.935 89.137c0-14.488 11.74-26.243 26.24-26.243 14.49 0 26.243 11.754 26.243 26.243v191.94c0 14.49-11.752 26.242-26.242 26.242-14.5 0-26.241-11.752-26.241-26.242V89.137zM795.182 196.78c10.248-10.245 26.857-10.245 37.105 0 10.246 10.247 10.246 26.858 0 37.104l-135.706 135.72c-10.248 10.245-26.87 10.245-37.115 0-10.247-10.246-10.247-26.87 0-37.103l135.716-135.72zM934.917 488.736c14.489 0 26.242 11.742 26.242 26.242 0 14.489-11.752 26.24-26.242 26.24h-191.94c-14.49 0-26.242-11.751-26.242-26.24 0-14.5 11.75-26.242 26.242-26.242h191.94zM827.272 793.984c10.247 10.248 10.247 26.87 0 37.116-10.245 10.246-26.856 10.246-37.103 0l-135.72-135.732c-10.244-10.234-10.244-26.857 0-37.103 10.25-10.246 26.87-10.246 37.116 0l135.707 135.72zM535.318 933.717c0 14.489-11.742 26.242-26.23 26.242-14.5 0-26.253-11.752-26.253-26.242v-191.94c0-14.488 11.753-26.23 26.253-26.23 14.488 0 26.23 11.742 26.23 26.23v191.94zM230.067 826.086c-10.245 10.247-26.854 10.247-37.102 0-10.245-10.247-10.245-26.87 0-37.116l135.72-135.717c10.244-10.247 26.856-10.247 37.101 0 10.248 10.246 10.248 26.868 0 37.114l-135.719 135.72zM90.335 534.131c-14.488 0-26.242-11.752-26.242-26.254 0-14.49 11.754-26.23 26.242-26.23h191.94c14.49 0 26.242 11.74 26.242 26.23 0 14.501-11.753 26.254-26.242 26.254H90.335zM197.98 228.87c-10.246-10.247-10.246-26.857 0-37.103 10.234-10.245 26.856-10.245 37.104 0l135.719 135.719c10.245 10.234 10.245 26.857 0 37.103-10.248 10.246-26.857 10.246-37.104 0l-135.72-135.72z" fill="" p-id="1964"></path></svg>