<?xml version="1.0" standalone="no"?><!DOCTYPE svg PUBLIC "-//W3C//DTD SVG 1.1//EN" "http://www.w3.org/Graphics/SVG/1.1/DTD/svg11.dtd"><svg t="1630569720821" class="icon" viewBox="0 0 1024 1024" version="1.1" xmlns="http://www.w3.org/2000/svg" p-id="6007" xmlns:xlink="http://www.w3.org/1999/xlink" width="32" height="32"><defs><style type="text/css"></style></defs><path d="M512 512m-374.656 0a374.656 374.656 0 1 0 749.312 0 374.656 374.656 0 1 0-749.312 0Z" fill="#FFFFFF" p-id="6008"></path><path d="M512 896c-211.712 0-384-172.288-384-384s172.288-384 384-384 384 172.288 384 384-172.288 384-384 384z m0-749.312c-201.344 0-365.312 163.84-365.312 365.312s163.84 365.312 365.312 365.312 365.312-163.84 365.312-365.312S713.344 146.688 512 146.688z" fill="#FF8818" p-id="6009"></path><path d="M525.184 387.456c-2.304-2.304-4.992-3.456-7.552-4.096-1.664-0.896-3.712-1.024-5.76-1.024-2.176 0-4.096 0.256-5.76 1.024-2.56 0.64-5.12 1.664-7.552 4.096L357.248 528.512c-6.272 6.272-6.272 16.128 0 22.528 6.272 6.272 16.128 6.272 22.528 0l117.376-117.376V684.8c0 8.192 6.272 14.464 14.464 14.464S526.08 692.992 526.08 684.8V433.664l117.376 117.376c6.272 6.272 16.128 6.272 22.528 0 6.272-6.272 6.272-16.128 0-22.528l-140.8-141.056z m159.616-62.72H339.2c-8.192 0-14.464 6.272-14.464 14.464s6.272 14.464 14.464 14.464h345.6c8.192 0 14.464-6.272 14.464-14.464 0-8.064-6.272-14.464-14.464-14.464z" fill="#FF8818" p-id="6010"></path></svg>