<?xml version="1.0" standalone="no"?><!DOCTYPE svg PUBLIC "-//W3C//DTD SVG 1.1//EN" "http://www.w3.org/Graphics/SVG/1.1/DTD/svg11.dtd"><svg t="1631534290846" class="icon" viewBox="0 0 1171 1024" version="1.1" xmlns="http://www.w3.org/2000/svg" p-id="52257" width="146.375" height="128" xmlns:xlink="http://www.w3.org/1999/xlink"><defs><style type="text/css"></style></defs><path d="M866.702 442.557H304.14c-38.466 0-69.904-31.438-69.904-69.904v-227.59c0-38.466 31.438-69.904 69.904-69.904h562.563c38.466 0 69.905 31.438 69.905 69.904v227.59c0 38.466-31.439 69.904-69.905 69.904z" fill="#FF4545" p-id="52258"></path><path d="M232.756 166.885v627.66c0 39.575 32.054 71.63 71.63 71.63h562.193c39.576 0 71.63-32.055 71.63-71.63v-627.66c-81.616 49.562-194.795 122.302-352.727 119.713S314.25 216.447 232.756 166.885z" fill="#DB1717" p-id="52259"></path><path d="M650.825 645.982l-7.274 35.507h97.274c25.398-0.493 29.59-10.973 37.48-37.11l29.959-142.15H575.25l-39.576 208.233c-3.575 23.424 6.904 35.137 31.562 35.137h194.672l45.74-31.562H624.194c-13.808 2.59-18.37-5.548-13.808-21.082l31.315-158.425h88.89l-19.849 95.301c-4.808 13.439-9.616 15.535-24.534 16.274l-35.384-0.123zM533.578 535.516l17.384-3.945 11.22-51.534-17.385 3.945 6.905-49.932h16.15l5.425-37.48h-16.15l5.3-24.904h-80.383l-5.425 24.905H428.29l-5.424 37.48h48.329l-10.727 74.958-50.67 14.055-11.22 51.534 50.671-13.685-16.52 131.919c-0.124 15.657-6.165 22.191-18.124 19.48h-33.534l-28.48 33.164h120.7c23.054 2.589 35.383-8.507 36.863-33.165l23.424-176.795z m95.302-163.85L580.18 485.831h64.356l40.439-76.808h30.699l18.493 76.808h72.986l-27.123-114.165H628.88z m-293.056-68.794H478.47v8.753H335.824v-8.753z m-28.726 15.657h111.946v8.754H307.098v-8.754z m-22.561 14.672h82.11v8.753h-82.11v-8.753zM782.99 757.188h107.754v8.753H782.99v-8.753z m-28.726 15.657h85.808v8.754h-85.808v-8.754z" fill="#FFFFFF" p-id="52260"></path><path d="M521.743 287.214c0 35.137 28.48 63.617 63.616 63.617s63.617-28.48 63.617-63.617-28.48-63.616-63.617-63.616c-35.014 0-63.616 28.48-63.616 63.616z" fill="#FFF48D" p-id="52261"></path></svg>