<?xml version="1.0" standalone="no"?><!DOCTYPE svg PUBLIC "-//W3C//DTD SVG 1.1//EN" "http://www.w3.org/Graphics/SVG/1.1/DTD/svg11.dtd"><svg t="1629793890908" class="icon" viewBox="0 0 1024 1024" version="1.1" xmlns="http://www.w3.org/2000/svg" p-id="5690" width="32" height="32" xmlns:xlink="http://www.w3.org/1999/xlink"><defs><style type="text/css"></style></defs><path d="M129.5 489.5h296c35.29 0 64-28.71 64-64v-296c0-35.29-28.71-64-64-64h-296c-35.29 0-64 28.71-64 64v296c0 35.29 28.71 64 64 64z m0-360h296l0.04 295.999-0.04 0.001h-296v-296zM426 534H130c-35.29 0-64 28.71-64 64v296c0 35.29 28.71 64 64 64h296c35.29 0 64-28.71 64-64V598c0-35.29-28.71-64-64-64z m0 360H130V598h296l0.04 295.999-0.04 0.001zM895 534H599c-35.29 0-64 28.71-64 64v296c0 35.29 28.71 64 64 64h296c35.29 0 64-28.71 64-64V598c0-35.29-28.71-64-64-64z m0 360H599V598h296l0.04 295.999-0.04 0.001zM747 489.5c116.897 0 212-95.103 212-212s-95.103-212-212-212-212 95.103-212 212 95.103 212 212 212z m0-360c81.607 0 148 66.393 148 148s-66.393 148-148 148-148-66.393-148-148 66.393-148 148-148z" fill="#1A1A1C" p-id="5691"></path></svg>