<?xml version="1.0" standalone="no"?><!DOCTYPE svg PUBLIC "-//W3C//DTD SVG 1.1//EN" "http://www.w3.org/Graphics/SVG/1.1/DTD/svg11.dtd"><svg t="1631524773796" class="icon" viewBox="0 0 1268 1024" version="1.1" xmlns="http://www.w3.org/2000/svg" p-id="37084" xmlns:xlink="http://www.w3.org/1999/xlink" width="39.625" height="32"><defs><style type="text/css"></style></defs><path d="M1163.887304 870.266435c-12.889043-88.219826-90.445913-156.449391-184.921043-156.449392-94.47513 0-191.777391 61.551304-204.755478 149.793392H526.558609c-12.889043-88.242087-89.043478-149.815652-183.518609-149.815652s-170.963478 61.573565-183.919304 149.815652h-82.810435C47.237565 863.565913 4.274087 837.609739 0 790.28313V77.401043C2.960696 25.221565 47.34887 0 76.310261 0h693.604174c29.094957 0 69.075478 19.656348 77.06713 77.401043v127.354435h184.587131c38.733913 0 55.073391 23.062261 79.11513 51.222261l117.893565 203.865044S1268.869565 514.649043 1268.869565 563.266783v256c0 28.182261-23.462957 50.999652-52.424348 50.999652h-52.557913z m-3.628521-350.653218l-111.08174-200.347826s-11.753739-12.176696-20.257391-12.176695h-129.068522v256H1180.716522c-0.044522-12.777739-10.685217-29.362087-20.48-43.475479zM342.973217 767.933217c72.837565 0 131.940174 57.321739 131.940174 128.044522 0 70.678261-59.102609 128.022261-131.940174 128.022261-72.815304 0-131.917913-57.344-131.917913-128.022261 0-70.767304 59.035826-128.044522 131.917913-128.044522z m635.926261 0c72.837565 0 131.917913 57.321739 131.917913 128.044522 0 70.678261-59.080348 128.022261-131.917913 128.022261-72.837565 0-131.917913-57.344-131.917913-128.022261 0.111304-70.789565 59.12487-128.089043 131.917913-128.044522z" fill="#fd6b00" p-id="37085"></path></svg>