<?xml version="1.0" standalone="no"?><!DOCTYPE svg PUBLIC "-//W3C//DTD SVG 1.1//EN" "http://www.w3.org/Graphics/SVG/1.1/DTD/svg11.dtd"><svg t="1631524695495" class="icon" viewBox="0 0 1024 1024" version="1.1" xmlns="http://www.w3.org/2000/svg" p-id="34713" xmlns:xlink="http://www.w3.org/1999/xlink" width="32" height="32"><defs><style type="text/css"></style></defs><path d="M512 1008.009846a492.307692 492.307692 0 1 1 492.307692-492.307692 492.307692 492.307692 0 0 1-492.307692 492.307692z m0-886.587077a391.876923 391.876923 0 1 0 393.846154 391.876923 392.861538 392.861538 0 0 0-393.846154-391.876923z m0 734.779077a342.902154 342.902154 0 1 1 344.615385-342.902154A343.748923 343.748923 0 0 1 512 856.201846z m-3.682462-423.896615a47.497846 47.497846 0 0 1 31.291077 10.417231 26.604308 26.604308 0 0 1 7.719385 11.559384 10.948923 10.948923 0 0 0 9.846154 10.436923h36.155077c8.467692 0 10.673231-1.536 10.673231-10.811077 0-39.719385-31.291077-62.109538-66.953847-69.80923v-30.857847a9.334154 9.334154 0 0 0-10.67323-11.18523h-28.75077a9.334154 9.334154 0 0 0-10.67323 11.18523v29.696c-38.281846 7.345231-70.281846 31.251692-70.281847 74.456616 0 48.994462 34.225231 64.413538 71.404308 76.8 31.271385 10.397538 64.039385 10.791385 64.039385 32.374154S535.906462 592.738462 515.938462 592.738462a47.044923 47.044923 0 0 1-36.056616-12.721231 27.155692 27.155692 0 0 1-6.990769-15.753846c-0.748308-9.629538-4.785231-10.811077-13.252923-10.811077h-35.603692c-8.467692 0-10.673231 1.969231-10.673231 10.811077 0 43.972923 35.328 70.596923 73.609846 79.084307v30.129231a9.353846 9.353846 0 0 0 10.673231 11.185231h28.711384a9.334154 9.334154 0 0 0 10.653539-11.185231v-29.400615c43.421538-6.557538 73.235692-32.768 73.235692-79.084308 0-52.440615-39.010462-63.645538-65.516308-72.132923-14.729846-6.163692-68.824615-14.651077-68.824615-38.163692 0.019692-17.368615 20.342154-22.390154 32.413538-22.390154z" fill="#fd6b00" p-id="34714"></path></svg>