<?xml version="1.0" standalone="no"?><!DOCTYPE svg PUBLIC "-//W3C//DTD SVG 1.1//EN" "http://www.w3.org/Graphics/SVG/1.1/DTD/svg11.dtd"><svg t="1631525154178" class="icon" viewBox="0 0 1024 1024" version="1.1" xmlns="http://www.w3.org/2000/svg" p-id="44904" xmlns:xlink="http://www.w3.org/1999/xlink" width="32" height="32"><defs><style type="text/css"></style></defs><path d="M695.156364 335.872a35.374545 35.374545 0 0 0-25.181091-10.426182 35.374545 35.374545 0 0 0-25.181091 10.426182l-93.835637 93.835636-93.742545-93.789091a35.374545 35.374545 0 0 0-25.227636-10.426181A35.653818 35.653818 0 0 0 406.807273 386.327273l58.135272 58.088727h-56.785454a6.888727 6.888727 0 0 0-6.842182 6.935273v57.437091c0 3.816727 3.072 6.935273 6.888727 6.935272h107.147637v47.709091H408.203636a6.888727 6.888727 0 0 0-6.888727 6.888728v57.483636c0 3.816727 3.072 6.888727 6.888727 6.888727h107.147637v107.147637a35.700364 35.700364 0 0 0 71.261091 0v-107.147637h107.147636a6.888727 6.888727 0 0 0 6.888727-6.888727v-57.483636a6.888727 6.888727 0 0 0-6.888727-6.888728h-107.147636V515.723636h107.147636a6.888727 6.888727 0 0 0 6.888727-6.935272V451.304727a6.888727 6.888727 0 0 0-6.888727-6.888727h-56.738909l58.181818-58.135273a35.700364 35.700364 0 0 0 0-50.408727z m291.653818-7.68a471.272727 471.272727 0 0 0-101.329455-150.341818A471.179636 471.179636 0 0 0 551.144727 39.424a471.179636 471.179636 0 0 0-334.336 138.519273 471.226182 471.226182 0 0 0-125.021091 221.556363l-23.552-53.015272a35.700364 35.700364 0 0 0-65.163636 28.951272l73.076364 164.445091a33.838545 33.838545 0 0 0 6.562909 10.053818l0.139636 0.139637a51.2 51.2 0 0 0 1.349818 1.396363l0.093091 0.093091 0.930909 0.837819a29.323636 29.323636 0 0 0 4.421818 3.351272l0.139637 0.093091a31.650909 31.650909 0 0 0 1.954909 1.163637l0.232727 0.09309a35.793455 35.793455 0 0 0 4.468364 2.048h0.093091a37.236364 37.236364 0 0 0 2.094545 0.698182l0.232727 0.093091 0.186182 0.046546a38.772364 38.772364 0 0 0 1.908364 0.465454l0.325818 0.093091h0.139636a37.189818 37.189818 0 0 0 2.839273 0.512h0.139637l1.303272 0.186182h0.139637a22.621091 22.621091 0 0 0 2.234181 0.093091h0.093091l0.698182 0.046545 2.978909-0.139636h0.093091a38.353455 38.353455 0 0 0 6.516364-1.210182h0.093091a40.680727 40.680727 0 0 0 2.141091-0.698182h0.139636a34.304 34.304 0 0 0 2.513455-0.977454l0.046545-0.093091 0.325818-0.139637a27.089455 27.089455 0 0 0 3.397818-1.815272h0.093091a36.258909 36.258909 0 0 0 5.399273-4.002909l135.354182-118.597819a35.700364 35.700364 0 0 0-46.964364-53.620363l-64.232727 56.32C192.698182 249.390545 358.865455 110.638545 551.098182 110.638545c221.463273 0 401.640727 180.130909 401.640727 401.594182s-180.177455 401.594182-401.640727 401.594182a401.687273 401.687273 0 0 1-261.259637-96.581818 35.653818 35.653818 0 0 0-46.359272 54.132364 472.994909 472.994909 0 0 0 307.665454 113.710545 471.226182 471.226182 0 0 0 334.382546-138.472727A471.179636 471.179636 0 0 0 1024 512.232727c0-63.767273-12.520727-125.719273-37.189818-184.040727z" fill="#fd6b00" p-id="44905" data-spm-anchor-id="a313x.7781069.0.i40" class=""></path></svg>