<?xml version="1.0" standalone="no"?><!DOCTYPE svg PUBLIC "-//W3C//DTD SVG 1.1//EN" "http://www.w3.org/Graphics/SVG/1.1/DTD/svg11.dtd"><svg t="1631520864203" class="icon" viewBox="0 0 1024 1024" version="1.1" xmlns="http://www.w3.org/2000/svg" p-id="10766" xmlns:xlink="http://www.w3.org/1999/xlink" width="32" height="32"><defs><style type="text/css"></style></defs><path d="M681.8491821289062 495.3499450683593v0c-1.4642028808593748-2.537017822265625-2.5370178222656254-5.26519775390625-4.78070068359375-7.508056640625001-0.48944091796875-0.39303588867187494-0.876708984375-0.681427001953125-1.268096923828125-1.073638916015625-0.584197998046875-0.48944091796875-0.7794799804687499-1.268096923828125-1.2689208984375-1.7534179687499998l-273.0511779785156-263.2055053710938c-7.215545654296872-7.019439697265623-16.579193115234375-10.531219482421873-25.941192626953125-10.531219482421875-9.7525634765625 0-19.60235595703125 3.899871826171876-26.91595458984375 11.505981445312498-14.335510253906248 14.919708251953127-13.944946289062496 38.620513916015625 0.9747619628906283 52.95272827148437l246.33215332031247 237.36318969726565-247.3069152832031 233.94451904296875c-15.016937255859375 14.23828125-15.702484130859371 37.935791015625-1.4642028808593797 52.95272827148437 14.239105224609373 15.017761230468748 37.935791015625 15.702484130859371 52.95272827148437 1.4642028808593797l275.5881958007813-260.66848754882824c12.092651367187498-11.407104492187498 14.336334228515625-28.961883544921882 7.508880615234372-43.20016479492188-0.28839111328124994-0.7786560058593749-0.9739379882812498-1.4642028808593748-1.3620300292968746-2.2428588867187496v0zM681.8491821289062 495.3499450683593z" fill="#8a8a8a" p-id="10767"></path></svg>