<?xml version="1.0" standalone="no"?><!DOCTYPE svg PUBLIC "-//W3C//DTD SVG 1.1//EN" "http://www.w3.org/Graphics/SVG/1.1/DTD/svg11.dtd"><svg t="1631517156106" class="icon" viewBox="0 0 1064 1024" version="1.1" xmlns="http://www.w3.org/2000/svg" p-id="8839" xmlns:xlink="http://www.w3.org/1999/xlink" width="33.25" height="32"><defs><style type="text/css"></style></defs><path d="M952.9344 501.76c0-43.37664 27.4432-81.5104 69.8368-97.15712l21.7088-7.9872-5.7344-21.66784a498.36032 498.36032 0 0 0-57.91744-134.38976l-11.8784-19.21024-21.21728 9.09312a112.68096 112.68096 0 0 1-44.52352 9.05216 109.3632 109.3632 0 0 1-76.34944-30.43328 100.47488 100.47488 0 0 1-22.1184-116.08064l9.50272-20.48-20.0704-11.38688A545.09568 545.09568 0 0 0 654.21312 5.5296L631.72608 0l-8.35584 20.80768c-16.384 40.79616-56.1152 67.1744-101.13024 67.1744-45.13792 0-84.7872-26.37824-101.08928-67.13344L412.79488 0l-22.528 5.5296c-49.152 12.00128-96.256 30.72-139.8784 55.62368l-19.98848 11.38688 9.4208 20.39808c18.47296 39.89504 9.8304 85.48352-22.1184 116.1216a109.64992 109.64992 0 0 1-76.43136 30.39232 112.64 112.64 0 0 1-44.40064-9.0112l-21.21728-9.05216-11.8784 19.12832A495.49312 495.49312 0 0 0 5.77536 374.94784L0 396.57472l21.66784 8.02816c42.43456 15.72864 69.8368 53.8624 69.8368 97.15712 0 43.37664-27.4432 81.5104-69.8368 97.15712l-21.7088 7.9872 5.7344 21.66784a498.4832 498.4832 0 0 0 57.87648 134.38976l11.8784 19.2512 21.25824-9.13408a112.64 112.64 0 0 1 44.52352-9.05216c28.83584 0 55.95136 10.77248 76.30848 30.43328 31.9488 30.63808 40.63232 76.22656 22.1184 116.08064l-9.46176 20.48 20.0704 11.38688a544.768 544.768 0 0 0 139.91936 55.58272l22.528 5.5296 8.35584-20.80768c16.384-40.79616 56.1152-67.1744 101.13024-67.1744 45.13792 0 84.7872 26.37824 101.13024 67.13344l8.31488 20.84864 22.528-5.5296c49.152-12.00128 96.256-30.72 139.91936-55.58272l19.98848-11.4688-9.46176-20.39808a100.5568 100.5568 0 0 1 22.1184-116.08064 109.64992 109.64992 0 0 1 76.43136-30.39232c15.44192 0 30.39232 3.072 44.4416 9.0112l21.17632 9.05216 11.8784-19.12832a495.616 495.616 0 0 0 58.04032-134.43072l5.7344-21.66784-21.7088-7.9872c-42.43456-15.64672-69.8368-53.78048-69.8368-97.15712z m-6.63552 217.66144a167.40352 167.40352 0 0 0-43.08992-5.61152c-42.92608 0-83.18976 16.01536-113.4592 45.09696-41.61536 40.01792-56.60672 97.0752-41.04192 150.36416-27.648 14.21312-56.68864 25.76384-86.71232 34.48832-28.2624-48.3328-80.85504-78.4384-139.75552-78.4384-58.7776 0-111.4112 30.14656-139.71456 78.4384a490.82368 490.82368 0 0 1-86.91712-34.52928 151.1424 151.1424 0 0 0-40.96-150.3232 162.32448 162.32448 0 0 0-113.37728-45.13792c-14.7456 0-29.16352 1.8432-43.17184 5.61152a449.3312 449.3312 0 0 1-35.92192-83.3536c50.29888-27.11552 81.67424-77.70112 81.67424-134.26688 0-56.5248-31.37536-107.02848-81.67424-134.22592a446.0544 446.0544 0 0 1 36.0448-83.43552c14.00832 3.72736 28.50816 5.61152 43.008 5.61152 42.92608 0 83.23072-16.01536 113.4592-45.09696 41.65632-39.97696 56.64768-97.0752 41.08288-150.36416a488.93952 488.93952 0 0 1 86.71232-34.48832c28.2624 48.3328 80.85504 78.4384 139.75552 78.4384 58.7776 0 111.4112-30.14656 139.6736-78.4384 30.1056 8.72448 59.22816 20.31616 86.95808 34.52928a151.1424 151.1424 0 0 0 40.96 150.3232 162.36544 162.36544 0 0 0 113.37728 45.17888c14.58176 0 29.0816-1.88416 43.17184-5.65248 14.7456 26.624 26.78784 54.51776 35.88096 83.3536-50.25792 27.11552-81.63328 77.66016-81.63328 134.26688 0 56.56576 31.37536 107.15136 81.63328 134.26688a446.8736 446.8736 0 0 1-35.96288 83.3536zM522.24 347.50464c-88.51456 0-160.52224 69.2224-160.52224 154.25536s72.00768 154.2144 160.52224 154.2144c88.4736 0 160.52224-69.18144 160.52224-154.2144S610.7136 347.5456 522.24 347.5456z m0 258.37568c-59.76064 0-108.38016-46.6944-108.38016-104.12032s48.61952-104.12032 108.38016-104.12032c59.76064 0 108.38016 46.6944 108.38016 104.12032s-48.61952 104.12032-108.38016 104.12032z" fill="#ffffff" p-id="8840"></path></svg>