<?xml version="1.0" standalone="no"?><!DOCTYPE svg PUBLIC "-//W3C//DTD SVG 1.1//EN" "http://www.w3.org/Graphics/SVG/1.1/DTD/svg11.dtd"><svg t="1631517807085" class="icon" viewBox="0 0 1024 1024" version="1.1" xmlns="http://www.w3.org/2000/svg" p-id="9734" xmlns:xlink="http://www.w3.org/1999/xlink" width="32" height="32"><defs><style type="text/css"></style></defs><path d="M512 0a275.692308 275.692308 0 1 0 275.692308 275.692308 275.692308 275.692308 0 0 0-275.692308-275.692308z m0 472.615385a196.923077 196.923077 0 1 1 196.923077-196.923077 196.923077 196.923077 0 0 1-196.923077 196.923077z" p-id="9735" fill="#ffffff"></path><path d="M847.163077 597.858462A512 512 0 0 0 0 984.615385a39.384615 39.384615 0 0 0 78.769231 0 433.230769 433.230769 0 0 1 718.769231-326.104616 39.384615 39.384615 0 0 0 51.987692-58.289231z" p-id="9736" fill="#ffffff"></path><path d="M630.153846 748.307692h354.461539a39.384615 39.384615 0 0 1 39.384615 39.384616 39.384615 39.384615 0 0 1-39.384615 39.384615h-354.461539a39.384615 39.384615 0 0 1-39.384615-39.384615 39.384615 39.384615 0 0 1 39.384615-39.384616zM630.153846 945.230769h354.461539a39.384615 39.384615 0 0 1 39.384615 39.384616 39.384615 39.384615 0 0 1-39.384615 39.384615h-354.461539a39.384615 39.384615 0 0 1-39.384615-39.384615 39.384615 39.384615 0 0 1 39.384615-39.384616z" p-id="9737" fill="#ffffff"></path></svg>